<?xml version="1.0" encoding="UTF-8" standalone="no"?>
<!-- Created with Inkscape (http://www.inkscape.org/) -->

<svg
   width="57"
   height="21.389999"
   viewBox="0 0 15.08125 5.6594373"
   version="1.1"
   id="svg1"
   xml:space="preserve"
   xmlns="http://www.w3.org/2000/svg"
   xmlns:svg="http://www.w3.org/2000/svg"><defs
     id="defs1" /><g
     id="layer1"
     transform="translate(3.3752195,-18.649417)"><g
       id="g122"
       transform="matrix(0.05512573,0,0,0.05512573,-1.8014988,14.299797)"><path
         id="path104"
         style="fill:#6bbfa5;fill-opacity:1"
         d="m -16.641593,78.90362 c -2.838105,13.503603 -2.405634,28.24922 9.2604165,37.61838 3.1823537,2.55576 6.84118189,4.54382 10.5833333,6.15001 1.8774305,0.80583 4.4351021,1.1707 6.0523438,2.42569 2.0446604,1.58669 3.9322674,4.80694 5.3247394,6.98717 -13.3767627,-10.05693 -31.050153,-6.46035 -43.127083,3.96875 v 0.26458 c 9.118165,11.16871 22.5997133,19.38094 37.3062498,14.72365 3.9119302,-1.23884 7.6369852,-2.92827 11.1125002,-5.11545 1.070795,-0.67385 3.35148,-2.92828 4.648295,-2.74092 1.60981,0.23261 3.65038,2.93972 4.876705,3.9579 3.58708,2.97825 7.41517,6.19686 11.641666,8.22482 v 0.26459 c -4.358576,-0.62864 -8.511533,-1.43092 -12.964583,-1.00614 -7.374812,0.70347 -14.637505,5.315 -19.4282713,10.79572 -1.8600907,2.12797 -3.6110861,4.25915 -5.1779786,6.61458 -0.4725075,0.7103 -1.5597973,1.8817 -1.0572998,2.79622 0.5357975,0.97512 2.2195012,1.5693 3.1739665,2.02106 2.8859555,1.36599 5.9055182,2.59274 8.9958332,3.41323 12.784446,3.39437 24.75879,-0.32803 33.486845,-10.34717 1.97579,-2.26806 4.41944,-4.77949 5.406905,-7.67292 1.995787,0.49532 3.757381,1.45383 5.421891,2.61173 0.349927,0.24342 0.675528,0.53843 1.016993,0.79943 l 0.03772,-0.0279 c 0,0 -0.668214,-0.57542 -1.3224,-1.2113 -3.17e-4,-3.1e-4 -7.15e-4,-7.2e-4 -0.001,-0.001 -1.72e-4,-1.7e-4 -3.45e-4,-3.5e-4 -5.17e-4,-5.2e-4 L 56.118853,160.6599 40.77302,152.98698 c 1.477965,-3.70111 3.702171,-6.99914 4.934066,-10.84791 3.8413,-12.00128 1.711202,-23.09671 -6.737057,-32.54375 -2.213276,-2.47495 -4.750787,-4.68907 -7.457426,-6.61407 -0.811146,-0.5769 -2.072065,-1.7861 -3.14141,-1.72238 -0.941235,0.0561 -1.439989,1.27885 -1.816426,1.98645 -1.190543,2.23783 -2.266955,4.51776 -3.18947,6.87916 -2.606725,6.67253 -3.832008,14.73903 -1.630908,21.69584 1.143775,3.61501 3.170664,6.53467 5.015714,9.78958 -4.338186,-3.35962 -8.08442,-8.09098 -11.405505,-12.43542 -1.186695,-1.55237 -3.088915,-3.3971 -3.664892,-5.29166 -0.524258,-1.72447 0.499903,-4.31221 0.702282,-6.08542 0.41367,-3.62453 0.41671,-7.22379 0,-10.84792 C 10.768808,92.919136 -2.3523957,80.234253 -16.641593,78.90362 Z m 1.5875,4.7625 5.5562498,10.583334 -4.7624998,-2.645834 c 5.1259337,5.115495 10.5028208,9.16812 12.6999998,16.40417 l -8.4666668,-4.7625 v 0.26458 c 4.081931,2.00843 9.20094439,5.48985 11.3770835,9.525 C -10.474688,110.10043 -21.221533,95.964538 -15.054093,83.66612 Z m 260.085413,8.466667 c -14.79121,0 -29.10064,4.784509 -35.33737,19.314583 -1.47508,3.43655 -2.37416,7.15446 -2.91094,10.84792 -0.24282,1.67073 0.0847,4.35571 -0.86868,5.76864 -1.2051,1.78607 -3.62717,3.17041 -5.33301,4.44934 -4.59421,3.4444 -9.48209,6.41341 -14.55208,9.0966 2.94612,-2.68315 5.82884,-5.06171 8.01243,-8.46667 6.17745,-9.63292 4.52032,-20.97356 2.30632,-31.48541 -3.38114,0.19695 -6.81591,2.14433 -9.78958,3.63853 -2.93091,1.47272 -5.7275,3.28052 -8.20209,5.4405 -11.40191,9.95232 -11.0682,23.87955 -8.20208,37.48763 l -3.96875,1.05834 c 1.35103,7.39789 -5.29167,17.99166 -5.29167,17.99166 2.09544,2.4934 3.87094,5.16275 6.35,7.32462 6.59381,5.7502 14.82418,7.0986 23.28334,6.95978 2.64342,-0.0433 5.34695,-0.49683 7.9375,-1.0051 0.81487,-0.15988 2.34911,-0.25351 2.85409,-1.01803 0.51344,-0.77726 -0.15616,-2.219 -0.41031,-3.00085 -0.86345,-2.65619 -2.00991,-5.19812 -3.29489,-7.67292 -5.9996,-11.55491 -15.72431,-17.3218 -28.51764,-17.99166 v -0.26459 c 4.48136,-0.45485 9.4667,-2.89708 13.49375,-4.83381 1.32847,-0.63889 4.3424,-2.84433 5.80533,-2.41587 1.51806,0.44461 3.13581,3.18258 4.16822,4.33823 2.3787,2.66256 5.2715,5.09924 8.2827,7.0249 13.70155,8.76208 27.75723,4.12202 40.48125,-3.84886 -1.20706,-3.37037 -4.75466,-6.52399 -7.40834,-8.80515 -9.8344,-8.45383 -20.77102,-10.8289 -33.07291,-6.80527 2.05567,-1.75897 4.86648,-4.71194 7.40833,-5.63376 1.80197,-0.65351 4.41929,-0.28539 6.35,-0.50127 3.7794,-0.42255 7.6042,-1.40373 11.1125,-2.86597 13.6355,-5.68324 19.31458,-20.13303 19.31458,-34.126083 z m -4.23333,1.852083 v 0.264584 c -9.1369,4.384038 -15.51059,12.934716 -23.54792,18.785416 1.85144,-11.22706 12.56596,-19.02781 23.54792,-19.05 z m -48.68333,11.1125 -5.82084,10.05417 h -0.26458 v -5.55625 h -0.26458 l -2.62517,12.17083 -4.51858,7.67292 h -0.26459 v -10.84792 h -0.52916 c 0,4.90753 0.37832,11.2719 -2.11667,15.61042 -1.10922,-2.21198 -1.05836,-4.99062 -1.05833,-7.40834 1e-4,-9.88865 6.79463,-20.61304 17.4625,-21.69583 z m -166.42292,2.91042 h 0.529167 l 2.38125,7.14375 -2.116667,-1.5875 c 2.29862,4.34341 4.052605,8.57545 4.7625,13.49375 l -5.55625,-3.70417 5.912301,6.08542 3.083532,8.99583 c -2.039258,-0.69605 -3.783142,-2.20134 -5.289082,-3.70727 -7.526365,-7.52632 -6.762486,-17.41858 -3.706751,-26.71981 z m 193.18614,29.75477 c 3.08333,-0.006 6.04393,0.47481 8.42636,1.55443 4.21271,1.90902 7.89676,5.74303 10.58333,9.43663 l -26.72291,-5.55625 v -0.26458 l 11.90625,-2.91042 v -0.26458 c -5.73101,1.29279 -12.64165,1.58479 -18.52084,1.5875 3.70928,-2.20715 9.1889,-3.57217 14.32781,-3.58273 z m -241.075723,1.73064 c 8.434196,2.31178 18.0699995,1.25154 26.7229165,2.38125 v 0.26459 l -11.1125,4.23333 v 0.26458 l 18.5208335,-4.23333 v 0.26458 c -9.1139157,5.24661 -20.0675815,8.33008 -29.104167,1.44694 -1.51333,-1.15271 -4.399708,-2.78177 -5.027083,-4.62194 z m 197.303203,18.23817 c 0.47188,0.006 0.94053,0.0181 1.39888,0.0181 9.82988,0.003 19.57478,8.117 21.16667,17.99167 l -6.87917,-3.70417 v -0.26458 h 2.64583 v -0.26458 c -4.70131,-1.12958 -8.30965,-3.84882 -12.17083,-6.61459 v -0.26458 l 6.61458,-0.52917 v -0.26458 l -8.73125,-0.89917 -8.20208,-4.65708 c 0.86337,-0.35647 1.79431,-0.48902 2.73833,-0.53227 0.47202,-0.0216 0.94715,-0.0212 1.41904,-0.015 z M 40.243823,166.4807 c -2.950195,8.74226 -12.492443,12.46347 -20.902083,12.4349 -2.900385,-0.01 -6.830998,-0.40795 -9.260417,-2.11615 l 7.14375,-2.91041 -1.5875,2.11666 13.229167,-5.55625 -3.175,5.55625 5.586739,-5.87871 z" /><path
         d="m 56.118823,160.65987 2.507341,3.75843 c 0.654957,0.63681 1.323433,1.21233 1.323433,1.21233 l -0.03772,0.0279 c 3.67098,2.80593 6.932085,6.4736 11.023616,8.67286 10.829766,5.82115 24.5361,5.65638 35.454167,0.23151 3.88869,-1.93218 6.85591,-4.77473 10.31875,-7.28845 1.63013,3.62213 5.81377,6.51013 9.26041,8.26565 10.65216,5.42556 29.00636,3.8453 34.925,-8.26565 0,0 6.6427,-10.59376 5.29167,-17.99166 -0.42707,-14.99743 -14.01163,-25.66459 -28.31042,-25.66459 3.82625,-6.89287 1.63318,-16.07073 -4.7625,-20.61889 -6.88281,-4.894578 -18.73053,-3.665055 -22.75416,4.47931 -10.30015,-4.94192 -19.981251,-8.050502 -31.485417,-4.98264 -25.13547,6.70295 -36.050432,36.33162 -22.754167,58.16389 z m 72.429167,-58.44294 c 0.2467,-0.006 0.49772,0.008 0.75035,0.0398 1.51581,0.19251 3.08079,1.03413 4.00027,2.07997 0.88296,1.0043 1.09867,2.58714 -0.46147,3.03289 -1.8907,0.54016 -4.37503,-0.20851 -5.7335,-1.5782 -1.19607,-1.20595 -1.16969,-3.10469 0.72088,-3.49436 0.23436,-0.0483 0.47677,-0.0741 0.72347,-0.0801 z m -49.772152,2.86752 c 3.866493,0.1554 6.00377,2.99429 3.711919,7.15667 -2.07721,3.77258 -6.453713,6.96679 -10.758517,7.58455 -4.62158,0.66321 -7.904888,-2.16669 -5.460648,-6.7908 1.996092,-3.77622 6.461821,-7.21184 10.752315,-7.84862 0.615076,-0.0913 1.202576,-0.124 1.754931,-0.1018 z m 66.401632,21.66431 c 0.41489,-0.0228 0.83711,-0.0206 1.26297,0.005 2.55511,0.15582 5.22547,1.16938 7.01198,2.78433 2.01551,1.82194 2.38572,5.04323 -0.76068,5.83013 -3.34239,0.83594 -7.51143,-0.27191 -9.99422,-2.62103 -2.13083,-2.01606 -2.01347,-5.23841 1.26297,-5.8539 0.39456,-0.0741 0.8021,-0.12185 1.21698,-0.1447 z"
         style="fill:#7016a6;fill-opacity:1"
         id="path103" /></g></g></svg>
